<svg version="1.2" baseProfile="tiny" xmlns="http://www.w3.org/2000/svg" viewBox="0 0 939 131"><path d="M20.8 44.3v36.1h-8.5V44.3H.9v-7.6h31.3v7.6H20.8zm41.6 36.1V62.1H47.7v18.3h-8.5V36.7h8.5v17.8h14.8V36.7H71v43.7h-8.6zm18.8 0V36.7H110v7.6H89.7v10.2h17.2v7.6H89.7v10.6h20.2v7.6H81.2zm51.3 0V36.7h8.5v43.7h-8.5zm44.5 0l-17.3-26.8v26.8h-8.5V36.7h7.6l17.3 26.7V36.7h8.5v43.7H177zm34.5-36.1v36.1H203V44.3h-11.4v-7.6h31.3v7.6h-11.4zm18.3 36.1V36.7h28.8v7.6h-20.2v10.2h17.2v7.6h-17.2v10.6h20.2v7.6h-28.8zm60.3 0L281.6 63h-6.1v17.4H267V36.7h17c2.2 0 4.2.4 5.9 1.1 1.8.7 3.2 1.7 4.5 2.9 1.2 1.2 2.2 2.6 2.8 4.2.6 1.6 1 3.3 1 5.2 0 1.6-.2 2.9-.6 4.2s-1 2.3-1.7 3.3-1.6 1.8-2.5 2.5c-1 .7-2 1.2-3 1.6l9.8 18.8h-10.1zm-.4-30.3c0-1.7-.6-3.1-1.7-4.2s-2.6-1.6-4.5-1.6h-8v11.5h8c1.9 0 3.4-.5 4.5-1.6 1.1-1 1.7-2.4 1.7-4.1zm43.1 30.3l-17.3-26.8v26.8H307V36.7h7.6l17.3 26.7V36.7h8.5v43.7h-7.6zm17.8 0V36.7h28.8v7.6h-20.2v10.2h17.2v7.6h-17.2v10.6h20.2v7.6h-28.8zm53.8-36.1v36.1h-8.5V44.3h-11.4v-7.6h31.3v7.6h-11.4zm64.3 14.1v4.9c0 1.6-.1 3.1-.4 4.7-.2 1.5-.7 3-1.3 4.4-.6 1.4-1.5 2.7-2.8 3.9-1.4 1.4-3.1 2.5-5.1 3.2-2 .7-4.1 1-6.4 1H437V36.7h15.8c2.3 0 4.4.3 6.4 1s3.7 1.7 5.1 3.2c1.2 1.2 2.1 2.5 2.8 3.9.6 1.3 1 2.8 1.3 4.2.2 1.5.4 3 .4 4.6-.1 1.6-.1 3.2-.1 4.8zm-8.5 0c0-1.6 0-3.1-.1-4.3 0-1.2-.1-2.3-.2-3.2-.1-.9-.3-1.7-.6-2.3-.2-.6-.6-1.2-1-1.7-.7-.9-1.6-1.6-2.6-2-1-.4-2.3-.7-3.7-.7h-6.4v28.5h6.4c1.5 0 2.7-.2 3.7-.7 1-.4 1.9-1.1 2.6-2 .8-1 1.3-2.4 1.5-4.1.2-1.7.4-4.2.4-7.5zm17.2 22V36.7h28.8v7.6H486v10.2h17.2v7.6H486v10.6h20.2v7.6h-28.8zM523 44.3V55h17.2v7.6H523v17.7h-8.5V36.7h28.8v7.6H523zm27.7 36.1V36.7h28.8v7.6h-20.2v10.2h17.2v7.6h-17.2v10.6h20.2v7.6h-28.8zm62.9 0l-17.3-26.8v26.8h-8.5V36.7h7.6l17.3 26.7V36.7h8.5v43.7h-7.6zm46-12.9c0 2.1-.4 4-1.3 5.6-.8 1.6-2 3-3.4 4.1-1.5 1.1-3.2 2-5.1 2.6-2 .6-4.1.9-6.4.9-3.3 0-6.3-.4-8.9-1.3-2.6-.8-5-2.3-7.1-4.5l5.5-5.5c1.4 1.4 3 2.4 4.8 2.9 1.8.5 3.7.8 5.8.8 2.5 0 4.5-.5 5.8-1.4 1.3-.9 2-2.3 2-4 0-1.6-.5-2.8-1.3-3.7-.5-.4-1-.7-1.5-1-.6-.2-1.3-.4-2.4-.6l-5.3-.7c-3.7-.5-6.5-1.7-8.5-3.6-2.1-2.1-3.1-4.9-3.1-8.6 0-2 .3-3.8 1-5.4.7-1.6 1.7-3 3-4.2 1.3-1.2 2.9-2.1 4.8-2.7 1.9-.7 4-1 6.4-1 3 0 5.7.4 7.9 1.2 2.2.8 4.3 2.1 6.2 3.9l-5.4 5.3c-1.4-1.3-2.9-2.1-4.4-2.5-1.6-.3-3.1-.5-4.5-.5-2.3 0-4 .5-5.1 1.6-1.1 1.1-1.7 2.4-1.7 3.9 0 .6.1 1.1.3 1.7.2.5.5 1 1 1.5.5.4 1 .8 1.7 1.1.7.3 1.5.5 2.4.6l5.2.7c2 .3 3.7.7 5 1.3 1.3.6 2.4 1.3 3.4 2.1 1.2 1.1 2 2.4 2.6 4 .3 1.7.6 3.5.6 5.4zm8 12.9V36.7h28.8v7.6h-20.2v10.2h17.2v7.6h-17.2v10.6h20.2v7.6h-28.8zm51.4 0V36.7h8.5v36.1h19.8v7.6H719zm35.2 0V36.7H783v7.6h-20.2v10.2H780v7.6h-17.2v10.6H783v7.6h-28.8zm62 0l-2.6-7.7h-15.5l-2.6 7.7h-8.9l15.9-43.7h6.7L825 80.4h-8.8zM806 49.6l-5.5 15.9h10.9L806 49.6zm53.8 20.6c-.6 2.1-1.6 3.9-3.2 5.5s-3.4 2.9-5.4 3.7c-2 .9-4.3 1.3-6.8 1.3-2.4 0-4.6-.4-6.5-1.2-1.9-.8-3.7-2-5.2-3.6-1.1-1.1-2-2.3-2.5-3.5-.6-1.2-1-2.6-1.3-4-.2-1.4-.4-3-.4-4.6 0-1.6-.1-3.4-.1-5.3s0-3.6.1-5.3c0-1.6.2-3.2.4-4.6.2-1.4.7-2.8 1.3-4 .6-1.2 1.4-2.4 2.5-3.5 1.6-1.6 3.3-2.7 5.2-3.6 1.9-.8 4.1-1.2 6.6-1.2 1.5 0 2.9.1 4.1.3 1.2.2 2.4.5 3.4 1s2 1.1 3 1.7c.9.7 1.9 1.5 2.9 2.5l-5.8 5.8c-1.2-1.2-2.4-2.2-3.5-2.8-1.1-.6-2.5-1-4.1-1-1.2 0-2.2.2-3.2.6-.9.4-1.7 1-2.3 1.7-.4.5-.7 1-1 1.5-.3.6-.5 1.3-.6 2.2-.2.9-.3 2-.3 3.4-.1 1.4-.1 3.1-.1 5.2s0 3.8.1 5.2c.1 1.4.2 2.5.3 3.4.2.9.4 1.6.6 2.2.3.6.6 1.1 1 1.5.6.7 1.4 1.2 2.3 1.7.9.4 2 .6 3.2.6 1.3 0 2.4-.2 3.4-.6.9-.4 1.8-1 2.5-1.8s1.2-1.7 1.5-2.8c.3-1.1.4-2.1.4-3.2v-1.5h-7.7V56h16.3v6.3c-.2 3.2-.5 5.8-1.1 7.9zm39.4 1.6c-.8 1.9-2 3.5-3.4 4.8-1.5 1.3-3.2 2.4-5.1 3.1-1.9.7-4 1.1-6.3 1.1s-4.4-.4-6.3-1.1c-1.9-.7-3.6-1.8-5.1-3.1-1.5-1.3-2.6-2.9-3.4-4.8-.8-1.9-1.3-4-1.3-6.3V36.7h8.5v28.4c0 2.5.7 4.5 2 5.9 1.3 1.4 3.2 2.1 5.5 2.1s4.2-.7 5.5-2.1c1.4-1.4 2.1-3.4 2.1-5.9V36.7h8.5v28.7c0 2.4-.4 4.5-1.2 6.4zm10.7 8.6V36.7h28.8v7.6h-20.2v10.2h17.2v7.6h-17.2v10.6h20.2v7.6h-28.8zM305.8 122.6v-.9c1.1-.1 1.7-.1 1.9-.2l.3-.3c.1-.2.4-1.3.8-3.3.1-.5.5-3 1.3-7.3.6-3.4.9-5.3.9-5.8 0-.3-.1-.5-.3-.6-.3-.2-1-.3-2.2-.3l.1-.8c.1 0 .7 0 2.1.1h4c1.1 0 2-.1 2.4-.1 1.3 0 2.3.1 2.9.4.6.3 1.2.8 1.6 1.5.4.7.6 1.4.6 2.2 0 .9-.2 1.8-.5 2.7-.4.9-.8 1.7-1.4 2.3-.6.6-1.2 1.1-1.8 1.5-.9.5-1.8.7-2.8.7-.5 0-.9-.1-1.3-.2s-.8-.3-1.2-.5v-.9c.6.4 1.3.6 2.1.6s1.5-.2 2.3-.7c.7-.4 1.3-1.1 1.7-2 .4-.9.6-1.8.6-2.8 0-.8-.1-1.5-.4-2.1-.3-.6-.7-1-1.4-1.3-.6-.3-1.4-.5-2.4-.5-.6 0-1.3.1-2.1.2l-.9 5-1.3 7.1c-.4 2.1-.5 3.4-.6 3.7v.5c0 .3.1.4.2.6.1.1.3.2.7.3.3.1 1 .1 2 .1v.9c-1.4-.1-2.6-.1-3.5-.1-.6.2-2 .2-4.4.3zm19 .3l-.2-.2c.5-1.5.8-2.8 1-3.8.5-2 .8-3.7 1-5.3.1-.9.2-1.5.2-1.8 0-.2 0-.4-.1-.5 0-.1-.1-.1-.2-.1-.3 0-1.1.4-2.3 1.3l-.3-.5c1.2-1 2.3-1.8 3.2-2.3.6-.3 1.1-.5 1.4-.5.2 0 .3.1.4.2.1.1.2.3.2.5s-.1.7-.2 1.3c-.2 1.1-.5 2.5-.8 4 1-1.7 1.9-3.1 2.9-4.3.6-.7 1.1-1.2 1.4-1.4.3-.2.6-.3 1-.3.2 0 .3 0 .5.2-.2.8-.3 1.8-.5 3l-.4.1c-.3-.4-.6-.5-.9-.5-.3 0-.7.1-1 .4-.6.4-1.2 1.1-1.9 2.1s-1.2 2.1-1.5 3.5c-.2.7-.6 2.3-1 4.5-.8.1-1.5.2-1.9.4zm9.9-4.2c0-1.1.1-2.2.4-3.2.2-1 .6-1.8 1-2.6.4-.7.9-1.4 1.5-1.9.6-.6 1.3-1 2.1-1.3.8-.3 1.5-.5 2.2-.5.7 0 1.3.1 1.9.4.6.3 1.1.7 1.4 1.3.3.6.5 1.4.5 2.5 0 1.4-.3 2.8-.8 4.2-.4 1.1-1 2-1.5 2.7-.6.7-1.3 1.3-2.2 1.8-.9.5-1.8.7-2.7.7-1.1 0-2-.4-2.6-1.1-.9-.6-1.2-1.6-1.2-3zm2.1-.2c0 .9.1 1.5.3 2 .2.5.5.8.9 1 .4.2.9.4 1.4.4.6 0 1.1-.2 1.5-.5.4-.3.9-.9 1.3-1.7.4-.8.7-1.8.9-2.9.2-1.1.3-2.1.3-3 0-1.1-.2-2-.6-2.6-.4-.6-1-.9-1.9-.9-1.3 0-2.3.8-3 2.4-.7 1.4-1.1 3.4-1.1 5.8zm17.7.8l.3.5c-.8.7-1.6 1.3-2.5 1.9-.8.6-1.4.9-1.8 1.1-.2.1-.4.1-.6.1-.2 0-.4-.1-.6-.3-.2-.2-.3-.6-.3-1.1 0-.2 0-.5.1-.7 0-.3.1-.7.2-1.1l.6-2.8c.2-1 .5-2.7 1-5l-2.3.1.1-.4c.7-.3 1.2-.5 1.5-.6.3-.1.6-.3.9-.4.1-.7.2-1.3.3-1.6.1-.4.2-1.4.4-3.1l1.2-.5.9-.5.3.2c-.4 1.5-.6 2.3-.6 2.4-.1.3-.3 1.4-.7 3.3h1c.9 0 1.5-.1 1.9-.2l.1.1-.3 1.3c-.4 0-1.4 0-3-.1-.2.8-.4 2-.8 3.9-.4 1.8-.6 3.1-.7 4 0 .3-.1.6-.1.8 0 .2.1.4.2.5.1.1.2.2.4.2.1 0 .2 0 .4-.1.3-.1.6-.3 1-.6l1.5-1.3zm11.7.2l.2.5c-1 1-2.1 1.7-3.1 2.2-1 .5-1.9.7-2.6.7-.5 0-1-.1-1.5-.4-.5-.2-.9-.6-1.2-1.1-.3-.5-.4-1.2-.4-2.2 0-1 .2-2.2.5-3.4.3-1.2.7-2.2 1-2.8.3-.6.8-1.2 1.4-1.7.8-.7 1.7-1.2 2.7-1.7.7-.3 1.3-.5 1.9-.5.7 0 1.2.2 1.7.5.4.4.7.9.7 1.5 0 .5-.1.9-.3 1.4-.2.5-.5.9-.8 1.2-.5.5-1.2.9-2 1.3-.9.4-1.8.7-2.7 1l-1.8.4c-.2.9-.3 1.7-.3 2.2 0 .9.2 1.6.6 2 .4.4.9.7 1.5.7.5 0 1.1-.1 1.8-.4.6 0 1.5-.6 2.7-1.4zm-6.3-3.5c1.2-.2 2.2-.5 3-1 .8-.4 1.4-.9 1.8-1.5.4-.6.6-1.2.6-1.7s-.1-.8-.3-1.1c-.2-.2-.5-.4-.9-.4-.5 0-1.1.2-1.6.5s-1 .8-1.3 1.4c-.4.7-.8 1.9-1.3 3.8zm18.5 3.4l.2.6c-1 .8-1.7 1.3-2.2 1.7-.8.5-1.5.8-2.1 1-.5.2-1 .2-1.5.2-.7 0-1.2-.1-1.8-.4-.5-.3-.9-.7-1.2-1.4-.3-.6-.4-1.4-.4-2.4s.1-2 .4-3.1c.3-1.1.6-1.9 1-2.7.4-.7.8-1.2 1.3-1.6.9-.7 1.9-1.4 3.1-1.9.6-.3 1.3-.4 1.9-.4.5 0 .9.1 1.3.2s.8.3 1.1.5c-.3 1-.5 2.2-.6 3.5h-.6v-1.5c0-.3-.1-.5-.2-.7-.1-.2-.4-.3-.8-.5-.4-.1-.8-.2-1.4-.2-.9 0-1.7.2-2.2.7-.6.5-1.1 1.4-1.5 2.7-.5 1.6-.8 3.1-.8 4.3 0 1 .2 1.7.5 2.2.4.7 1.1 1.1 1.9 1.1.4 0 .8-.1 1.2-.2.4-.1.9-.4 1.5-.7.4 0 1-.4 1.9-1zm9.4-.1l.3.5c-.8.7-1.6 1.3-2.5 1.9-.8.6-1.4.9-1.8 1.1-.2.1-.4.1-.6.1-.2 0-.4-.1-.6-.3-.2-.2-.3-.6-.3-1.1 0-.2 0-.5.1-.7 0-.3.1-.7.2-1.1l.6-2.8c.2-1 .5-2.7 1-5l-2.3.1.1-.4c.7-.3 1.2-.5 1.5-.6.3-.1.6-.3.9-.4.1-.7.2-1.3.3-1.6.1-.4.2-1.4.4-3.1l1.2-.5.9-.5.3.2c-.4 1.5-.6 2.3-.6 2.4-.1.3-.3 1.4-.7 3.3h1c.9 0 1.5-.1 1.9-.2l.1.1-.3 1.3c-.4 0-1.4 0-3-.1-.2.8-.4 2-.8 3.9-.4 1.8-.6 3.1-.7 4 0 .3-.1.6-.1.8 0 .2.1.4.2.5s.2.2.4.2c.1 0 .2 0 .4-.1.3-.1.6-.3 1-.6l1.5-1.3zm3.8-6.9l-.2-.5c1.6-1.1 2.7-1.8 3.2-2.1.5-.3 1-.4 1.3-.4.2 0 .3.1.4.2.1.2.2.4.2.8 0 .2 0 .4-.1.7-.1.5-.4 1.5-.8 3-1 3.7-1.5 5.9-1.5 6.5 0 .2 0 .3.1.4.1.1.2.1.3.1.2 0 .4-.1.7-.2.3-.1.8-.5 1.5-1l.3.5c-1.5 1.1-2.6 1.9-3.3 2.3-.4.2-.7.3-.9.3-.2 0-.4-.1-.6-.3-.2-.2-.3-.5-.3-.9 0-.3 0-.6.1-1s.2-1 .5-1.9c1.1-3.8 1.6-6.2 1.6-7.1 0-.2 0-.3-.1-.4 0-.1-.1-.1-.2-.1s-.2 0-.4.1c-.1 0-.7.3-1.8 1zm3.5-7.8c0-.5.2-.9.5-1.3s.7-.5 1.1-.5c.3 0 .6.1.8.3.2.2.3.5.3.8 0 .5-.1.9-.4 1.3-.3.4-.6.6-1.1.6-.3 0-.6-.1-.8-.3-.3-.2-.4-.5-.4-.9zm5.4 18.2l-.2-.2c.4-1.9.9-4.2 1.5-6.9.4-2 .7-3.3.7-3.9 0-.2 0-.3-.1-.4-.1-.1-.2-.1-.3-.1-.1 0-.2 0-.4.1s-.5.2-.9.4l-1.2.7-.2-.5 1.3-.9c.5-.3 1-.7 1.6-1 .5-.3.9-.5 1.2-.6.1 0 .3-.1.4-.1.2 0 .3.1.5.2.1.2.2.4.2.7 0 .2 0 .4-.1.6-.1.4-.2 1.2-.5 2.3l-.6 2.5h.1c.8-1.3 1.7-2.4 2.7-3.4 1-1 2.1-1.8 3.3-2.3.8-.4 1.4-.6 1.8-.6.2 0 .4.1.6.2.2.2.2.4.2.7 0 .6-.3 2.2-.9 4.6-.8 3.2-1.3 5.2-1.3 5.7 0 .2 0 .3.1.4.1.1.2.1.3.1.1 0 .4-.1.7-.2.6-.4 1.2-.7 1.7-1.1l.2.5c-.8.6-1.4 1.1-1.9 1.4-.9.6-1.5.9-2 1.1-.2.1-.4.1-.5.1-.3 0-.5-.1-.6-.3-.2-.2-.2-.4-.2-.8 0-.3 0-.6.1-1 .1-.7.5-2.1 1-4.2.7-2.6 1-4.1 1-4.7 0-.3 0-.5-.1-.6-.1-.1-.2-.2-.4-.2-.3 0-.7.1-1.1.4-.7.4-1.4 1-2.2 1.7-.8.8-1.4 1.6-1.9 2.5-.5.9-.9 2-1.3 3.4-.1.5-.3 1.6-.6 3.2-.6.2-1.1.3-1.7.5zm19.2-.7c-.3-.3-.5-.5-.5-.6-.1-.1-.1-.2-.1-.3 0-.2.1-.4.2-.6.3-.4.8-1 1.7-1.7h-.6c-1.1 0-2-.3-2.6-.9-.6-.6-.9-1.4-.9-2.5s.3-2.1.8-3c.5-.9 1.3-1.7 2.3-2.3 1-.6 2.1-.9 3.1-.9.9 0 1.6.2 2.1.5.4.2.8.6 1.1 1.1h1.4c.3 0 .6-.1 1-.1l.1.1-.2 1.4h-.7c-.3 0-.7 0-1.1.1 0 .3.1.6.1.8 0 .6-.1 1.2-.3 1.7-.2.5-.4.9-.6 1.3-.3.4-.6.8-.9 1.1-.3.3-.8.6-1.3.9-.5.3-1.1.5-1.6.6-.5.5-.8.9-.8 1.2 0 .3.1.7.4 1 .3.3 1.1 1 2.4 2.2.8.6 1.3 1.2 1.5 1.7.3.5.4 1 .4 1.4 0 .6-.2 1.2-.6 1.9s-1.2 1.2-2.3 1.7c-1.1.5-2.4.7-3.9.7-1.7 0-2.9-.3-3.7-1-.8-.6-1.2-1.4-1.2-2.4 0-.6.2-1.2.5-1.7.3-.6.9-1.2 1.8-1.7.6-.9 1.7-1.3 3-1.7zm.4.5c-.8.2-1.5.5-2.2 1-.7.4-1.2.9-1.5 1.4-.3.5-.4 1.1-.4 1.6 0 .8.3 1.5 1 2.1.7.6 1.6.8 2.9.8 1.4 0 2.5-.3 3.3-1 .6-.5.9-1 .9-1.7 0-.4-.1-.7-.3-1.1-.2-.4-.5-.7-.9-1.1l-2.8-2zm-1.4-7.7c0 1 .2 1.7.7 2.2.5.5 1.1.8 1.9.8.7 0 1.3-.2 1.8-.6.5-.4.8-1 1.1-1.8.3-.8.4-1.6.4-2.4 0-1-.2-1.7-.7-2.2-.4-.5-1-.7-1.8-.7-1.1 0-1.9.5-2.5 1.4-.6.9-.9 2-.9 3.3zm25.6 4.4l.3.5c-.8.7-1.6 1.3-2.5 1.9-.8.6-1.4.9-1.8 1.1-.2.1-.4.1-.6.1-.2 0-.4-.1-.6-.3-.2-.2-.3-.6-.3-1.1 0-.2 0-.5.1-.7 0-.3.1-.7.2-1.1l.6-2.8c.2-1 .5-2.7 1-5l-2.3.1.1-.4c.7-.3 1.2-.5 1.5-.6.3-.1.6-.3.9-.4.1-.7.2-1.3.3-1.6.1-.4.2-1.4.4-3.1l1.2-.5.9-.5.3.2c-.4 1.5-.6 2.3-.6 2.4-.1.3-.3 1.4-.7 3.3h1c.9 0 1.5-.1 1.9-.2l.1.1-.3 1.3c-.4 0-1.4 0-3-.1-.2.8-.4 2-.8 3.9-.4 1.8-.6 3.1-.7 4 0 .3-.1.6-.1.8 0 .2.1.4.2.5.1.1.2.2.4.2.1 0 .2 0 .4-.1.3-.1.6-.3 1-.6l1.5-1.3zm3.1 3.5l-.2-.2c.6-2.6 1.1-4.8 1.5-6.6.5-2.3.9-4.4 1.3-6.4s.6-3.6.8-4.6v-.4c0-.2 0-.3-.1-.4-.1-.1-.2-.1-.4-.2h-1.8l.1-.6c1.9-.3 3.2-.7 4-1.1l.3.3c-.1.7-.2 1.2-.3 1.6l-1 5.5-.9 5.3.1.1c.7-.9 1.3-1.6 1.7-2.1.7-.8 1.5-1.5 2.2-2 .8-.5 1.5-1 2.3-1.2.5-.2 1-.3 1.3-.3.2 0 .4.1.5.2.2.2.2.4.2.6 0 .2 0 .4-.1.6-.1.3-.3 1.1-.6 2.4-.6 2.3-1 4.3-1.4 5.9-.2.7-.2 1.2-.2 1.5 0 .1 0 .2.1.3.1.1.2.1.3.1.3 0 1.1-.5 2.4-1.4l.3.5c-.5.4-1.1.9-2 1.5-.8.6-1.5 1-2.1 1.2-.2.1-.3.1-.4.1-.2 0-.3-.1-.5-.3-.1-.2-.2-.5-.2-.9s.1-.9.3-1.7l1-4.4c.4-1.5.6-2.7.7-3.4 0-.2.1-.4.1-.5 0-.2 0-.3-.1-.4-.1-.1-.2-.1-.4-.1-.3 0-.6.1-.9.2-.8.4-1.6 1-2.5 1.9-.9.9-1.6 1.8-2 2.7s-.9 2-1.1 3.2l-.6 3.1-1.3.3c-.1 0-.3.1-.4.1zm23.1-3.3l.2.5c-1 1-2.1 1.7-3.1 2.2-1 .5-1.9.7-2.6.7-.5 0-1-.1-1.5-.4-.5-.2-.9-.6-1.2-1.1-.3-.5-.4-1.2-.4-2.2 0-1 .2-2.2.5-3.4.3-1.2.7-2.2 1-2.8.3-.6.8-1.2 1.4-1.7.8-.7 1.7-1.2 2.7-1.7.7-.3 1.3-.5 1.9-.5.7 0 1.2.2 1.7.5.4.4.7.9.7 1.5 0 .5-.1.9-.3 1.4-.2.5-.5.9-.8 1.2-.5.5-1.2.9-2 1.3-.9.4-1.8.7-2.7 1l-1.8.4c-.2.9-.3 1.7-.3 2.2 0 .9.2 1.6.6 2 .4.4.9.7 1.5.7.5 0 1.1-.1 1.8-.4.6 0 1.5-.6 2.7-1.4zm-6.2-3.5c1.2-.2 2.2-.5 3-1 .8-.4 1.4-.9 1.8-1.5.4-.6.6-1.2.6-1.7s-.1-.8-.3-1.1c-.2-.2-.5-.4-.9-.4-.5 0-1.1.2-1.6.5s-1 .8-1.3 1.4c-.4.7-.8 1.9-1.3 3.8zm16.3 6.6l.1-.8c.9-.1 1.5-.2 1.8-.4l.3-.3c.2-.3.5-1.9 1-4.7.8-4.4 1.3-7.2 1.5-8.3.3-1.6.5-2.7.5-3.2 0-.2-.1-.4-.2-.5-.1-.1-.3-.2-.6-.2s-.9-.1-1.8-.1l.1-.8c.3 0 .7 0 1.1.1 1.7.1 2.8.1 3.3.1l5.9-.1c.8 0 1.5 0 2.1.1-.1.6-.2 1.2-.3 1.7-.1.5-.1 1.3-.2 2.5h-.7c0-.2-.1-.8-.2-1.8 0-.4-.1-.7-.1-.9-1-.3-2.4-.4-4.3-.4-.6 0-1.3 0-2 .1-.2.8-.4 1.9-.6 3.1-.5 3.1-.8 4.8-.9 5.4h3.1c.5 0 1 0 1.5-.1.3 0 1.1-.1 2.5-.2l.1.2-.3.7c-.1.3-.2.6-.3.7l-2.4-.1c-.7 0-1.5-.1-2.4-.1-.7 0-1.5 0-2.2.1-.7 3.8-1 6-1 6.5 0 .3.1.5.2.6.1.1.4.2.7.3.2 0 .9.1 2 .2l-.1.8-3.6-.1h-.8l-2.8-.1zm17.5.3l-.2-.2c.5-1.5.8-2.8 1-3.8.5-2 .8-3.7 1-5.3.1-.9.2-1.5.2-1.8 0-.2 0-.4-.1-.5 0-.1-.1-.1-.2-.1-.3 0-1.1.4-2.3 1.3l-.3-.5c1.2-1 2.3-1.8 3.2-2.3.6-.3 1.1-.5 1.4-.5.2 0 .3.1.4.2.1.1.2.3.2.5s-.1.7-.2 1.3c-.2 1.1-.5 2.5-.8 4 1-1.7 1.9-3.1 2.9-4.3.6-.7 1.1-1.2 1.4-1.4.3-.2.6-.3 1-.3.2 0 .3 0 .5.2-.2.8-.3 1.8-.5 3l-.4.1c-.3-.4-.6-.5-.9-.5-.3 0-.7.1-1 .4-.6.4-1.2 1.1-1.9 2.1-.6 1-1.2 2.1-1.5 3.5-.2.7-.6 2.3-1 4.5-.8.1-1.5.2-1.9.4zm18.5-3.4l.2.5c-1 1-2.1 1.7-3.1 2.2s-1.9.7-2.6.7c-.5 0-1-.1-1.5-.4-.5-.2-.9-.6-1.2-1.1-.3-.5-.4-1.2-.4-2.2 0-1 .2-2.2.5-3.4.3-1.2.7-2.2 1-2.8.3-.6.8-1.2 1.4-1.7.8-.7 1.7-1.2 2.7-1.7.7-.3 1.3-.5 1.9-.5.7 0 1.2.2 1.7.5.4.4.7.9.7 1.5 0 .5-.1.9-.3 1.4-.2.5-.5.9-.8 1.2-.5.5-1.2.9-2 1.3-.9.4-1.8.7-2.7 1l-1.8.4c-.2.9-.3 1.7-.3 2.2 0 .9.2 1.6.6 2 .4.4.9.7 1.5.7.5 0 1.1-.1 1.8-.4.6 0 1.5-.6 2.7-1.4zm-6.2-3.5c1.2-.2 2.2-.5 3-1 .8-.4 1.4-.9 1.8-1.5.4-.6.6-1.2.6-1.7s-.1-.8-.3-1.1c-.2-.2-.5-.4-.9-.4-.5 0-1.1.2-1.6.5s-1 .8-1.3 1.4c-.4.7-.8 1.9-1.3 3.8zm17.7 3.5l.2.5c-1 1-2.1 1.7-3.1 2.2s-1.9.7-2.6.7c-.5 0-1-.1-1.5-.4-.5-.2-.9-.6-1.2-1.1-.3-.5-.4-1.2-.4-2.2 0-1 .2-2.2.5-3.4.3-1.2.7-2.2 1-2.8.3-.6.8-1.2 1.4-1.7.8-.7 1.7-1.2 2.7-1.7.7-.3 1.3-.5 1.9-.5.7 0 1.2.2 1.7.5.4.4.7.9.7 1.5 0 .5-.1.9-.3 1.4-.2.5-.5.9-.8 1.2-.5.5-1.2.9-2 1.3-.9.4-1.8.7-2.7 1l-1.8.4c-.2.9-.3 1.7-.3 2.2 0 .9.2 1.6.6 2 .4.4.9.7 1.5.7.5 0 1.1-.1 1.8-.4.6 0 1.5-.6 2.7-1.4zm-6.3-3.5c1.2-.2 2.2-.5 3-1 .8-.4 1.4-.9 1.8-1.5.4-.6.6-1.2.6-1.7s-.1-.8-.3-1.1c-.2-.2-.5-.4-.9-.4-.5 0-1.1.2-1.6.5s-1 .8-1.3 1.4c-.4.7-.8 1.9-1.3 3.8zm16.6 6.6l.1-.8c1 0 1.6-.1 1.7-.2l.3-.3c.1-.3.4-1.5.7-3.7.4-2.2.9-5.2 1.5-9 .4-1.9.6-3.2.6-3.7 0-.3-.1-.5-.2-.6-.1-.1-.3-.2-.7-.2l-1.7-.1.1-.8 4.1.1c.6 0 1.6 0 2.8-.1l-.1.8c-1 0-1.5.1-1.7.2-.1 0-.2.1-.2.2-.1.1-.2.3-.2.5-.3 1.3-.7 3.5-1.2 6.5l-1.1 6.3c-.3 1.8-.5 2.9-.5 3.4 0 .2.1.4.2.5.3.1 1 .2 2.3.2l-.1.8c-1.3-.1-2.4-.1-3.4-.1-.9 0-2.1 0-3.3.1zm11.3.2l-.2-.2c.4-1.9.9-4.2 1.5-6.9.4-2 .7-3.3.7-3.9 0-.2 0-.3-.1-.4-.1-.1-.2-.1-.3-.1-.1 0-.2 0-.4.1s-.5.2-.9.4l-1.2.7-.2-.5 1.3-.9c.5-.3 1-.7 1.6-1 .5-.3.9-.5 1.2-.6.1 0 .3-.1.4-.1.2 0 .3.1.5.2.1.2.2.4.2.7 0 .2 0 .4-.1.6-.1.4-.2 1.2-.5 2.3l-.6 2.5h.1c.8-1.3 1.7-2.4 2.7-3.4 1-1 2.1-1.8 3.3-2.3.8-.4 1.4-.6 1.8-.6.2 0 .4.1.6.2.2.2.2.4.2.7 0 .6-.3 2.2-.9 4.6-.8 3.2-1.3 5.2-1.3 5.7 0 .2 0 .3.1.4.1.1.2.1.3.1.1 0 .4-.1.7-.2.6-.4 1.2-.7 1.7-1.1l.2.5c-.8.6-1.4 1.1-1.9 1.4-.9.6-1.5.9-2 1.1-.2.1-.4.1-.5.1-.3 0-.5-.1-.6-.3-.2-.2-.2-.4-.2-.8 0-.3 0-.6.1-1 .1-.7.5-2.1 1-4.2.7-2.6 1-4.1 1-4.7 0-.3 0-.5-.1-.6-.1-.1-.2-.2-.4-.2-.3 0-.7.1-1.1.4-.7.4-1.4 1-2.2 1.7-.8.8-1.4 1.6-1.9 2.5-.5.9-.9 2-1.3 3.4-.1.5-.3 1.6-.6 3.2-.6.2-1.2.3-1.7.5zm21.6-3.5l.3.5c-.8.7-1.6 1.3-2.5 1.9-.8.6-1.4.9-1.8 1.1-.2.1-.4.1-.6.1-.2 0-.4-.1-.6-.3-.2-.2-.3-.6-.3-1.1 0-.2 0-.5.1-.7 0-.3.1-.7.2-1.1l.6-2.8c.2-1 .5-2.7 1-5l-2.3.1.1-.4c.7-.3 1.2-.5 1.5-.6.3-.1.6-.3.9-.4.1-.7.2-1.3.3-1.6.1-.4.2-1.4.4-3.1l1.2-.5.9-.5.3.2c-.4 1.5-.6 2.3-.6 2.4-.1.3-.3 1.4-.7 3.3h1c.9 0 1.5-.1 1.9-.2l.1.1-.3 1.3c-.4 0-1.4 0-3-.1-.2.8-.4 2-.8 3.9-.4 1.8-.6 3.1-.7 4 0 .3-.1.6-.1.8 0 .2.1.4.2.5.1.1.2.2.4.2.1 0 .2 0 .4-.1.3-.1.6-.3 1-.6l1.5-1.3zm11.7.2l.2.5c-1 1-2.1 1.7-3.1 2.2s-1.9.7-2.6.7c-.5 0-1-.1-1.5-.4-.5-.2-.9-.6-1.2-1.1-.3-.5-.4-1.2-.4-2.2 0-1 .2-2.2.5-3.4.3-1.2.7-2.2 1-2.8.3-.6.8-1.2 1.4-1.7.8-.7 1.7-1.2 2.7-1.7.7-.3 1.3-.5 1.9-.5.7 0 1.2.2 1.7.5.4.4.7.9.7 1.5 0 .5-.1.9-.3 1.4-.2.5-.5.9-.8 1.2-.5.5-1.2.9-2 1.3-.9.4-1.8.7-2.7 1l-1.8.4c-.2.9-.3 1.7-.3 2.2 0 .9.2 1.6.6 2 .4.4.9.7 1.5.7.5 0 1.1-.1 1.8-.4.6 0 1.5-.6 2.7-1.4zm-6.2-3.5c1.2-.2 2.2-.5 3-1 .8-.4 1.4-.9 1.8-1.5.4-.6.6-1.2.6-1.7s-.1-.8-.3-1.1c-.2-.2-.5-.4-.9-.4-.5 0-1.1.2-1.6.5s-1 .8-1.3 1.4c-.4.7-.8 1.9-1.3 3.8zm10.1 6.9l-.2-.2c.5-1.5.8-2.8 1-3.8.5-2 .8-3.7 1-5.3.1-.9.2-1.5.2-1.8 0-.2 0-.4-.1-.5 0-.1-.1-.1-.2-.1-.3 0-1.1.4-2.3 1.3l-.3-.5c1.2-1 2.3-1.8 3.2-2.3.6-.3 1.1-.5 1.4-.5.2 0 .3.1.4.2.1.1.2.3.2.5s-.1.7-.2 1.3c-.2 1.1-.5 2.5-.8 4 1-1.7 1.9-3.1 2.9-4.3.6-.7 1.1-1.2 1.4-1.4.3-.2.6-.3 1-.3.2 0 .3 0 .5.2-.2.8-.3 1.8-.5 3l-.4.1c-.3-.4-.6-.5-.9-.5-.3 0-.7.1-1 .4-.6.4-1.2 1.1-1.9 2.1s-1.2 2.1-1.5 3.5c-.2.7-.6 2.3-1 4.5-.8.1-1.5.2-1.9.4zm11.7-.1l-.2-.2c.4-1.9.9-4.2 1.5-6.9.4-2 .7-3.3.7-3.9 0-.2 0-.3-.1-.4-.1-.1-.2-.1-.3-.1-.1 0-.2 0-.4.1s-.5.2-.9.4l-1.2.7-.2-.5 1.3-.9c.5-.3 1-.7 1.6-1 .5-.3.9-.5 1.2-.6.1 0 .3-.1.4-.1.2 0 .3.1.5.2.1.2.2.4.2.7 0 .2 0 .4-.1.6-.1.4-.2 1.2-.5 2.3l-.6 2.5h.1c.8-1.3 1.7-2.4 2.7-3.4 1-1 2.1-1.8 3.3-2.3.8-.4 1.4-.6 1.8-.6.2 0 .4.1.6.2.2.2.2.4.2.7 0 .6-.3 2.2-.9 4.6-.8 3.2-1.3 5.2-1.3 5.7 0 .2 0 .3.1.4.1.1.2.1.3.1.1 0 .4-.1.7-.2.6-.4 1.2-.7 1.7-1.1l.2.5c-.8.6-1.4 1.1-1.9 1.4-.9.6-1.5.9-2 1.1-.2.1-.4.1-.5.1-.3 0-.5-.1-.6-.3-.2-.2-.2-.4-.2-.8 0-.3 0-.6.1-1 .1-.7.5-2.1 1-4.2.7-2.6 1-4.1 1-4.7 0-.3 0-.5-.1-.6-.1-.1-.2-.2-.4-.2-.3 0-.7.1-1.1.4-.7.4-1.4 1-2.2 1.7-.8.8-1.4 1.6-1.9 2.5-.5.9-.9 2-1.3 3.4-.1.5-.3 1.6-.6 3.2-.6.2-1.1.3-1.7.5zm23.5-3.3l.2.5c-1 1-2.1 1.7-3.1 2.2s-1.9.7-2.6.7c-.5 0-1-.1-1.5-.4-.5-.2-.9-.6-1.2-1.1-.3-.5-.4-1.2-.4-2.2 0-1 .2-2.2.5-3.4.3-1.2.7-2.2 1-2.8.3-.6.8-1.2 1.4-1.7.8-.7 1.7-1.2 2.7-1.7.7-.3 1.3-.5 1.9-.5.7 0 1.2.2 1.7.5.4.4.7.9.7 1.5 0 .5-.1.9-.3 1.4-.2.5-.5.9-.8 1.2-.5.5-1.2.9-2 1.3-.9.4-1.8.7-2.7 1l-1.8.4c-.2.9-.3 1.7-.3 2.2 0 .9.2 1.6.6 2 .4.4.9.7 1.5.7.5 0 1.1-.1 1.8-.4.5 0 1.5-.6 2.7-1.4zm-6.3-3.5c1.2-.2 2.2-.5 3-1 .8-.4 1.4-.9 1.8-1.5.4-.6.6-1.2.6-1.7s-.1-.8-.3-1.1c-.2-.2-.5-.4-.9-.4-.5 0-1.1.2-1.6.5s-1 .8-1.3 1.4c-.4.7-.8 1.9-1.3 3.8zm15.9 3.3l.3.5c-.8.7-1.6 1.3-2.5 1.9-.8.6-1.4.9-1.8 1.1-.2.1-.4.1-.6.1-.2 0-.4-.1-.6-.3-.2-.2-.3-.6-.3-1.1 0-.2 0-.5.1-.7 0-.3.1-.7.2-1.1l.6-2.8c.2-1 .5-2.7 1-5l-2.3.1.1-.4c.7-.3 1.2-.5 1.5-.6.3-.1.6-.3.9-.4.1-.7.2-1.3.3-1.6.1-.4.2-1.4.4-3.1l1.2-.5.9-.5.3.2c-.4 1.5-.6 2.3-.6 2.4-.1.3-.3 1.4-.7 3.3h1c.9 0 1.5-.1 1.9-.2l.1.1-.3 1.3c-.4 0-1.4 0-3-.1-.2.8-.4 2-.8 3.9-.4 1.8-.6 3.1-.7 4 0 .3-.1.6-.1.8 0 .2.1.4.2.5s.2.2.4.2c.1 0 .2 0 .4-.1.3-.1.6-.3 1-.6l1.5-1.3z" fill="#FFF"/><path fill="#FFF" stroke="#FFF" stroke-width="2" stroke-miterlimit="10" d="M.9 11h937.7M.9 1h937.7M657.5 117.8h281.1m-281.1-9h281.1m-937.7 9h282.5m-282.5-9h282.5"/></svg>