<svg version="1.2" baseProfile="tiny" xmlns="http://www.w3.org/2000/svg" viewBox="0 0 845.6 210.7"><path d="M103.9 10v129.2H81.5V30.5H22.4v108.6H0V10h103.9zm156.9 96.1c-3.7 7.2-9.3 14.9-15.9 20.9-11.8 10.6-26.5 15.9-42.9 15.9-31.1 0-63.8-19.6-63.8-67.5 0-38.6 23.7-68.5 62.6-68.5 25.2 0 41.1 12.4 48.9 23.7 8.1 11.5 12.8 31.4 12.1 48.6H161.2c.3 26.8 18.7 43.9 41.1 43.9 10.6 0 19-3.1 26.5-9.3 5.9-5 10.6-11.5 13.4-17.7l18.6 10zm-22.1-45.7c-3.7-20.2-19-33.6-38-33.6s-34.5 14.3-38 33.6h76zm79.7 150.3H296V10h22.4v18c15.2-19 34.9-21.2 44.2-21.2 40.5 0 62.9 33.6 62.9 68.5 0 35.5-22.7 67.5-61.9 67.5-20.9 0-35.5-9.3-45.1-21.8v89.7zm84-135.4c0-31.7-21.5-48.5-42.3-48.5s-43 17.1-43 48.2c0 26.5 16.8 47.9 43.3 47.9 26.1 0 42-21.8 42-47.6zM482.1 10v85.3L570.4 0v139.1H548V52.9l-88.4 95.2V10h22.5zm130.7 0h22.4v52.9h61V10h22.4v129.2h-22.4V83.4h-61v55.7h-22.4V10zm192.3 20.5v108.6h-22.4V30.5h-40.5V10h103.3v20.5h-40.4z" fill="#FFF"/></svg>